<?xml version="1.0" encoding="UTF-8"?><svg xmlns="http://www.w3.org/2000/svg" viewBox="0 0 26.83 25.78"><defs><style>.d{fill:#ff000d;}</style></defs><g id="a"/><g id="b"><g id="c"><path class="d" d="M25.49,17.03c-.26-.33-.38-.91-.38-1.76v-4.78c0-3.47-1.1-6.08-3.29-7.85C19.62,.88,16.53,0,12.53,0c-2.14,0-4.15,.26-6.02,.79-1.87,.53-3.66,1.34-5.35,2.42l2.64,5.66c1.34-.9,2.63-1.58,3.86-2.04,1.23-.46,2.55-.7,3.96-.7,1.54,0,2.65,.28,3.34,.83,.69,.55,1.03,1.4,1.03,2.53v.77c-.64-.32-1.4-.56-2.28-.72-.88-.16-1.82-.24-2.81-.24-2.11,0-3.99,.36-5.64,1.08-1.65,.72-2.94,1.72-3.86,3-.93,1.27-1.39,2.74-1.39,4.41,0,1.51,.38,2.87,1.15,4.08s1.82,2.16,3.17,2.85c1.34,.69,2.85,1.04,4.51,1.04s3.23-.38,4.7-1.13c1.47-.75,2.77-1.85,3.89-3.29l.19,.91c.26,1.15,.81,2.02,1.66,2.62,.85,.59,2.09,.89,3.72,.89,.51,0,1.1-.04,1.75-.12,.66-.08,1.35-.2,2.09-.36v-7.68c-.64-.06-1.09-.26-1.34-.59Zm-12.83,5.78c-.94,.16-1.9,.25-2.85,.25s-1.91-.08-2.85-.25c.35-2.01,.7-4.02,1.05-6.03-.75-.55-1.24-1.43-1.24-2.43,0-1.67,1.36-3.03,3.03-3.03s3.03,1.36,3.03,3.03c0,1-.49,1.88-1.24,2.43,.35,2.01,.7,4.02,1.05,6.03Z"/></g></g></svg>