<?xml version="1.0" encoding="UTF-8"?><svg xmlns="http://www.w3.org/2000/svg" viewBox="0 0 367.05 103.34"><defs><style>.d{fill:#ff000d;}.e{fill:#4f4f4f;}</style></defs><g id="a"/><g id="b"><g id="c"><g><g><path class="e" d="M10.9,.96h10.46l10.85,34.08h-9.5l-1.76-6.67H11.31l-1.76,6.67H0L10.9,.96Zm8.4,21.17l-3.17-12-3.17,12h6.33Z"/><path class="e" d="M51.41,35.52c-1.82,0-3.41-.35-4.75-1.06-1.34-.71-2.38-1.74-3.12-3.09v13.9h-9.12V10.13h7.92v3.82c.9-1.35,2.01-2.39,3.34-3.12,1.33-.72,2.94-1.09,4.82-1.09,1.7,0,3.25,.31,4.66,.94,1.41,.63,2.64,1.53,3.7,2.69,1.06,1.16,1.87,2.52,2.45,4.06,.58,1.54,.86,3.24,.86,5.1,0,2.49-.46,4.71-1.39,6.66-.93,1.95-2.2,3.49-3.82,4.63-1.62,1.13-3.46,1.7-5.54,1.7Zm-3.17-7.68c.67,0,1.29-.14,1.85-.41,.56-.28,1.05-.66,1.46-1.15,.42-.49,.74-1.06,.96-1.71,.22-.65,.34-1.34,.34-2.07s-.12-1.46-.36-2.07c-.24-.61-.58-1.14-1.03-1.59-.45-.45-.98-.79-1.58-1.04s-1.28-.37-2.02-.37c-.42,0-.82,.05-1.22,.16-.4,.1-.78,.25-1.13,.45-.35,.19-.7,.44-1.03,.74-.34,.3-.65,.66-.94,1.08v4.3c.29,.7,.68,1.33,1.18,1.89,.5,.56,1.05,1,1.66,1.32,.61,.32,1.23,.48,1.87,.48Z"/><path class="e" d="M82.61,17.57c-1.76,0-3.36,.19-4.8,.58s-2.51,1.02-3.22,1.92v14.98h-9.12V10.13h8.35v4.46c.9-1.7,2.02-3,3.36-3.91,1.34-.91,2.77-1.37,4.27-1.37h.74c.14,0,.28,.02,.41,.05v8.21Z"/><path class="e" d="M97.87,35.52c-2.21,0-4.18-.34-5.9-1.02-1.73-.68-3.18-1.6-4.34-2.77-1.17-1.17-2.06-2.5-2.66-4.02-.61-1.51-.91-3.1-.91-4.78,0-2.39,.53-4.58,1.58-6.58,1.06-2,2.61-3.6,4.66-4.81,2.05-1.21,4.58-1.81,7.58-1.81s5.54,.6,7.58,1.8,3.6,2.77,4.66,4.73c1.06,1.95,1.58,4.08,1.58,6.38,0,.47-.02,.95-.07,1.44-.05,.49-.1,.92-.17,1.3h-17.71c.06,.85,.31,1.54,.74,2.07s.98,.92,1.63,1.16c.66,.24,1.34,.36,2.04,.36,.99,0,1.93-.22,2.81-.67,.88-.45,1.46-1.07,1.75-1.87l7.73,2.21c-.67,1.34-1.61,2.53-2.81,3.55-1.2,1.02-2.62,1.83-4.25,2.42-1.63,.59-3.47,.89-5.52,.89Zm-4.32-15.6h8.35c-.1-.78-.33-1.44-.7-1.98-.37-.54-.85-.96-1.44-1.26-.59-.3-1.27-.45-2.04-.45s-1.45,.15-2.04,.45c-.59,.3-1.07,.72-1.44,1.26-.37,.54-.6,1.2-.7,1.98Z"/><path class="e" d="M140.06,35.04h-9.12v-13.86c0-1.22-.28-2.1-.84-2.65-.56-.55-1.21-.82-1.94-.82-.51,0-1.06,.14-1.63,.43-.58,.29-1.1,.69-1.58,1.2-.48,.51-.86,1.1-1.15,1.77v13.92h-9.12V10.13h8.21v3.77c.61-.91,1.38-1.68,2.3-2.29,.93-.61,2-1.08,3.22-1.39,1.22-.31,2.54-.47,3.98-.47,1.73,0,3.1,.3,4.13,.9,1.02,.6,1.79,1.37,2.3,2.31,.51,.94,.85,1.93,1.01,2.95,.16,1.02,.24,1.96,.24,2.81v16.33Z"/><path class="e" d="M143.13,22.58c0-2.46,.47-4.65,1.42-6.59,.94-1.94,2.25-3.46,3.91-4.58,1.66-1.12,3.57-1.68,5.71-1.68,1.63,0,3.14,.38,4.51,1.13,1.38,.75,2.42,1.78,3.12,3.1V0h9.12V24.96c0,.86,.13,1.46,.38,1.8,.26,.34,.7,.54,1.34,.6v7.68c-1.57,.32-2.85,.48-3.84,.48-1.54,0-2.75-.29-3.65-.86-.9-.58-1.47-1.46-1.73-2.64l-.19-.91c-.86,1.54-2.03,2.66-3.5,3.36-1.47,.7-3.04,1.06-4.7,1.06s-3.32-.31-4.78-.94c-1.46-.63-2.72-1.52-3.79-2.67-1.07-1.15-1.9-2.52-2.47-4.11-.58-1.59-.86-3.33-.86-5.22Zm18.72,2.77v-4.33c-.29-.71-.68-1.33-1.18-1.87-.5-.54-1.05-.96-1.66-1.27-.61-.31-1.23-.46-1.87-.46-.67,0-1.29,.14-1.85,.42-.56,.28-1.05,.66-1.46,1.15-.42,.49-.74,1.06-.96,1.71-.22,.64-.34,1.34-.34,2.07s.12,1.46,.36,2.07c.24,.61,.58,1.14,1.03,1.59,.45,.45,.98,.79,1.58,1.04,.61,.25,1.28,.37,2.02,.37,.45,0,.86-.05,1.25-.16,.38-.11,.75-.26,1.1-.46,.35-.2,.7-.46,1.03-.78,.34-.32,.65-.68,.94-1.08Z"/><path class="e" d="M188.83,35.52c-2.21,0-4.18-.34-5.9-1.02-1.73-.68-3.18-1.6-4.34-2.77-1.17-1.17-2.06-2.5-2.66-4.02-.61-1.51-.91-3.1-.91-4.78,0-2.39,.53-4.58,1.58-6.58,1.06-2,2.61-3.6,4.66-4.81,2.05-1.21,4.58-1.81,7.58-1.81s5.54,.6,7.58,1.8,3.6,2.77,4.66,4.73c1.06,1.95,1.58,4.08,1.58,6.38,0,.47-.02,.95-.07,1.44-.05,.49-.1,.92-.17,1.3h-17.71c.06,.85,.31,1.54,.74,2.07s.98,.92,1.63,1.16c.66,.24,1.34,.36,2.04,.36,.99,0,1.93-.22,2.81-.67,.88-.45,1.46-1.07,1.75-1.87l7.73,2.21c-.67,1.34-1.61,2.53-2.81,3.55-1.2,1.02-2.62,1.83-4.25,2.42-1.63,.59-3.47,.89-5.52,.89Zm-4.32-15.6h8.35c-.1-.78-.33-1.44-.7-1.98-.37-.54-.85-.96-1.44-1.26-.59-.3-1.27-.45-2.04-.45s-1.45,.15-2.04,.45c-.59,.3-1.07,.72-1.44,1.26-.37,.54-.6,1.2-.7,1.98Z"/><path class="e" d="M1.15,75.26c0-2.08,.39-4.12,1.18-6.12,.78-2,1.93-3.82,3.43-5.45,1.5-1.63,3.34-2.94,5.5-3.91,2.16-.98,4.6-1.46,7.32-1.46,3.26,0,6.11,.68,8.54,2.04,2.43,1.36,4.24,3.16,5.42,5.4l-7.15,5.09c-.42-1.12-1.02-1.98-1.8-2.59-.78-.61-1.63-1.03-2.54-1.27-.91-.24-1.8-.36-2.66-.36-1.34,0-2.5,.26-3.48,.79-.98,.53-1.78,1.22-2.4,2.09-.62,.86-1.09,1.82-1.39,2.88-.3,1.06-.46,2.11-.46,3.17,0,1.18,.18,2.32,.53,3.41,.35,1.09,.86,2.06,1.54,2.9,.67,.85,1.5,1.51,2.47,1.99,.98,.48,2.07,.72,3.29,.72,.86,0,1.74-.14,2.64-.41,.9-.27,1.71-.71,2.45-1.32,.74-.61,1.3-1.42,1.68-2.45l7.63,4.56c-.67,1.66-1.79,3.09-3.36,4.27-1.57,1.18-3.34,2.09-5.33,2.71-1.98,.62-3.95,.94-5.9,.94-2.53,0-4.84-.5-6.94-1.51-2.1-1.01-3.9-2.35-5.42-4.03-1.52-1.68-2.7-3.57-3.53-5.66-.83-2.1-1.25-4.23-1.25-6.41Z"/><path class="e" d="M35.57,65.28v-7.68h9.12v7.68h-9.12Zm0,27.36v-25.25h9.12v25.25h-9.12Z"/><path class="e" d="M65.38,93.12c-1.89,0-3.52-.38-4.9-1.13-1.38-.75-2.46-1.85-3.26-3.29v3.94h-7.92V57.6h9.12v13.97c.74-1.38,1.78-2.42,3.12-3.14,1.34-.72,2.93-1.08,4.75-1.08,1.54,0,2.96,.32,4.27,.97,1.31,.65,2.46,1.55,3.43,2.71,.98,1.16,1.74,2.54,2.28,4.13,.54,1.59,.82,3.31,.82,5.17s-.3,3.52-.89,5.08c-.59,1.56-1.41,2.92-2.45,4.08-1.04,1.16-2.27,2.06-3.7,2.69-1.42,.63-2.98,.94-4.68,.94Zm-2.64-7.68c.74,0,1.41-.12,2.02-.37s1.14-.59,1.58-1.04c.45-.45,.79-.98,1.03-1.59,.24-.61,.36-1.31,.36-2.07,0-.98-.2-1.88-.6-2.7-.4-.81-.94-1.46-1.63-1.94-.69-.48-1.48-.71-2.38-.71-.64,0-1.26,.15-1.87,.46-.61,.31-1.16,.73-1.66,1.27-.5,.54-.89,1.16-1.18,1.87v4.33c.29,.4,.6,.76,.94,1.08,.34,.32,.68,.58,1.03,.78,.35,.2,.73,.35,1.13,.46,.4,.11,.81,.16,1.22,.16Z"/><path class="e" d="M92.78,93.12c-2.21,0-4.18-.34-5.9-1.02-1.73-.68-3.18-1.6-4.34-2.77-1.17-1.17-2.06-2.5-2.66-4.02-.61-1.51-.91-3.1-.91-4.78,0-2.39,.53-4.58,1.58-6.58,1.06-2,2.61-3.6,4.66-4.81,2.05-1.21,4.58-1.81,7.58-1.81s5.54,.6,7.58,1.8,3.6,2.77,4.66,4.73c1.06,1.95,1.58,4.08,1.58,6.38,0,.47-.02,.95-.07,1.44-.05,.49-.1,.92-.17,1.3h-17.71c.06,.85,.31,1.54,.74,2.07s.98,.92,1.63,1.16c.66,.24,1.34,.36,2.04,.36,.99,0,1.93-.22,2.81-.67,.88-.45,1.46-1.07,1.75-1.87l7.73,2.21c-.67,1.34-1.61,2.53-2.81,3.55-1.2,1.02-2.62,1.83-4.25,2.42-1.63,.59-3.47,.89-5.52,.89Zm-4.32-15.6h8.35c-.1-.78-.33-1.44-.7-1.98-.37-.54-.85-.96-1.44-1.26-.59-.3-1.27-.45-2.04-.45s-1.45,.15-2.04,.45c-.59,.3-1.07,.72-1.44,1.26-.37,.54-.6,1.2-.7,1.98Z"/><path class="e" d="M126.72,75.17c-1.76,0-3.36,.19-4.8,.58s-2.51,1.02-3.22,1.92v14.98h-9.12v-24.91h8.35v4.46c.9-1.7,2.02-3,3.36-3.91,1.34-.91,2.77-1.37,4.27-1.37h.74c.14,0,.28,.02,.41,.05v8.21Z"/><path class="e" d="M139.68,93.12c-2.21,0-4.38-.36-6.5-1.08-2.13-.72-3.93-1.77-5.4-3.14l3.12-5.62c1.57,1.02,3.08,1.82,4.54,2.4,1.46,.58,2.78,.86,3.96,.86,.67,0,1.17-.08,1.49-.23,.32-.15,.48-.41,.48-.78,0-.28-.11-.52-.34-.71-.22-.19-.58-.38-1.08-.57-.5-.19-1.13-.39-1.9-.61-1.98-.69-3.64-1.33-4.97-1.93-1.33-.6-2.32-1.33-2.98-2.19-.66-.86-.98-2.02-.98-3.46,0-1.7,.43-3.2,1.3-4.5,.86-1.3,2.1-2.33,3.72-3.09,1.62-.75,3.56-1.13,5.83-1.13,1.7,0,3.4,.26,5.11,.79,1.71,.53,3.37,1.48,4.97,2.86l-3.46,5.57c-1.6-.99-2.95-1.7-4.06-2.11-1.1-.42-2.09-.62-2.95-.62-.42,0-.78,.05-1.08,.14-.3,.09-.54,.23-.7,.42-.16,.19-.24,.44-.24,.75s.11,.57,.34,.77c.22,.2,.58,.39,1.06,.56,.48,.17,1.09,.37,1.82,.58,2.18,.62,3.95,1.26,5.33,1.9,1.38,.64,2.39,1.41,3.05,2.32,.66,.91,.98,2.09,.98,3.56,0,2.59-.94,4.62-2.81,6.09-1.87,1.47-4.42,2.2-7.66,2.2Z"/><path class="e" d="M166.03,93.12c-2.21,0-4.18-.34-5.9-1.02-1.73-.68-3.18-1.6-4.34-2.77-1.17-1.17-2.06-2.5-2.66-4.02-.61-1.51-.91-3.1-.91-4.78,0-2.39,.53-4.58,1.58-6.58,1.06-2,2.61-3.6,4.66-4.81,2.05-1.21,4.58-1.81,7.58-1.81s5.54,.6,7.58,1.8,3.6,2.77,4.66,4.73c1.06,1.95,1.58,4.08,1.58,6.38,0,.47-.02,.95-.07,1.44-.05,.49-.1,.92-.17,1.3h-17.71c.06,.85,.31,1.54,.74,2.07s.98,.92,1.63,1.16c.66,.24,1.34,.36,2.04,.36,.99,0,1.93-.22,2.81-.67,.88-.45,1.46-1.07,1.75-1.87l7.73,2.21c-.67,1.34-1.61,2.53-2.81,3.55-1.2,1.02-2.62,1.83-4.25,2.42-1.63,.59-3.47,.89-5.52,.89Zm-4.32-15.6h8.35c-.1-.78-.33-1.44-.7-1.98-.37-.54-.85-.96-1.44-1.26-.59-.3-1.27-.45-2.04-.45s-1.45,.15-2.04,.45c-.59,.3-1.07,.72-1.44,1.26-.37,.54-.6,1.2-.7,1.98Z"/><path class="e" d="M192.52,93.12c-1.63,0-3.13-.32-4.49-.96-1.36-.64-2.52-1.54-3.48-2.69-.96-1.15-1.7-2.5-2.23-4.04-.53-1.54-.79-3.21-.79-5,0-1.89,.29-3.63,.86-5.22s1.38-2.97,2.42-4.16c1.04-1.19,2.28-2.1,3.72-2.74,1.44-.64,3.02-.96,4.75-.96s3.38,.34,4.78,1.03c1.39,.69,2.49,1.72,3.29,3.1v-3.74h7.92v22.73c0,2.6-.64,4.87-1.92,6.8-1.28,1.93-3.07,3.43-5.38,4.49-2.3,1.06-4.99,1.59-8.06,1.59-2.66,0-4.98-.42-6.98-1.25-2-.83-3.77-2.03-5.3-3.6l4.8-4.99c.93,.86,2.04,1.59,3.34,2.18,1.3,.59,2.68,.89,4.15,.89,1.12,0,2.15-.18,3.1-.55,.94-.37,1.7-.95,2.28-1.75,.58-.8,.86-1.96,.86-3.46v-1.63c-.7,1.31-1.75,2.3-3.14,2.95-1.39,.66-2.89,.98-4.49,.98Zm3.26-7.2c.45,0,.87-.06,1.27-.17,.4-.11,.78-.27,1.13-.48,.35-.21,.7-.48,1.03-.82,.34-.34,.65-.71,.94-1.13v-4.53c-.29-.77-.69-1.44-1.2-2-.51-.56-1.07-1-1.68-1.3-.61-.31-1.23-.46-1.87-.46s-1.24,.15-1.8,.43c-.56,.29-1.05,.7-1.46,1.23-.42,.53-.74,1.13-.96,1.81-.22,.67-.34,1.4-.34,2.17s.12,1.48,.36,2.12c.24,.64,.58,1.2,1.03,1.66,.45,.47,.98,.83,1.58,1.09,.61,.26,1.26,.39,1.97,.39Z"/><path class="e" d="M213.64,84.12v-16.39h9.12v14.27c0,1.07,.25,1.91,.74,2.52,.5,.61,1.18,.92,2.04,.92,.48,0,.96-.06,1.44-.18s.97-.36,1.46-.73c.5-.36,.98-.88,1.46-1.55v-15.25h9.12v14.88c0,.85,.13,1.44,.38,1.77,.26,.33,.7,.53,1.34,.59v7.68c-.8,.16-1.52,.28-2.16,.36-.64,.08-1.2,.12-1.68,.12-1.54,0-2.75-.29-3.65-.85-.9-.57-1.47-1.44-1.73-2.6l-.19-.9c-1.18,1.55-2.6,2.66-4.25,3.34-1.65,.68-3.51,1.02-5.59,1.02-2.53,0-4.47-.77-5.83-2.32-1.36-1.55-2.04-3.77-2.04-6.68Z"/><path class="e" d="M261.64,75.17c-1.76,0-3.36,.19-4.8,.58s-2.51,1.02-3.22,1.92v14.98h-9.12v-24.91h8.35v4.46c.9-1.7,2.02-3,3.36-3.91,1.34-.91,2.77-1.37,4.27-1.37h.74c.14,0,.28,.02,.41,.05v8.21Z"/><path class="e" d="M264.47,65.28v-7.68h9.12v7.68h-9.12Zm0,27.36v-25.25h9.12v25.25h-9.12Z"/><path class="e" d="M276.86,80.18c0-2.46,.47-4.65,1.42-6.59,.94-1.94,2.25-3.46,3.91-4.58,1.66-1.12,3.57-1.68,5.71-1.68,1.63,0,3.14,.38,4.51,1.13,1.38,.75,2.42,1.78,3.12,3.1v-13.97h9.12v24.96c0,.86,.13,1.46,.38,1.8,.26,.34,.7,.54,1.34,.6v7.68c-1.57,.32-2.85,.48-3.84,.48-1.54,0-2.75-.29-3.65-.86-.9-.58-1.47-1.46-1.73-2.64l-.19-.91c-.86,1.54-2.03,2.66-3.5,3.36-1.47,.7-3.04,1.06-4.7,1.06s-3.32-.31-4.78-.94c-1.46-.63-2.72-1.52-3.79-2.67-1.07-1.15-1.9-2.52-2.47-4.11-.58-1.59-.86-3.33-.86-5.22Zm18.72,2.77v-4.33c-.29-.71-.68-1.33-1.18-1.87-.5-.54-1.05-.96-1.66-1.27-.61-.31-1.23-.46-1.87-.46-.67,0-1.29,.14-1.85,.42-.56,.28-1.05,.66-1.46,1.15-.42,.49-.74,1.06-.96,1.71-.22,.64-.34,1.34-.34,2.07s.12,1.46,.36,2.07c.24,.61,.58,1.14,1.03,1.59,.45,.45,.98,.79,1.58,1.04,.61,.25,1.28,.37,2.02,.37,.45,0,.86-.05,1.25-.16,.38-.11,.75-.26,1.1-.46,.35-.2,.7-.46,1.03-.78,.34-.32,.65-.68,.94-1.08Z"/><path class="e" d="M337.53,80.18c0-2.46,.47-4.65,1.42-6.59,.94-1.94,2.25-3.46,3.91-4.58,1.66-1.12,3.57-1.68,5.71-1.68,1.63,0,3.14,.38,4.51,1.13,1.38,.75,2.42,1.78,3.12,3.1v-13.97h9.12v24.96c0,.86,.13,1.46,.38,1.8,.26,.34,.7,.54,1.34,.6v7.68c-1.57,.32-2.85,.48-3.84,.48-1.54,0-2.75-.29-3.65-.86-.9-.58-1.47-1.46-1.73-2.64l-.19-.91c-.86,1.54-2.03,2.66-3.5,3.36-1.47,.7-3.04,1.06-4.7,1.06s-3.32-.31-4.78-.94c-1.46-.63-2.72-1.52-3.79-2.67-1.07-1.15-1.9-2.52-2.47-4.11-.58-1.59-.86-3.33-.86-5.22Zm18.72,2.77v-4.33c-.29-.71-.68-1.33-1.18-1.87-.5-.54-1.05-.96-1.66-1.27-.61-.31-1.23-.46-1.87-.46-.67,0-1.29,.14-1.85,.42-.56,.28-1.05,.66-1.46,1.15-.42,.49-.74,1.06-.96,1.71-.22,.64-.34,1.34-.34,2.07s.12,1.46,.36,2.07c.24,.61,.58,1.14,1.03,1.59,.45,.45,.98,.79,1.58,1.04,.61,.25,1.28,.37,2.02,.37,.45,0,.86-.05,1.25-.16,.38-.11,.75-.26,1.1-.46,.35-.2,.7-.46,1.03-.78,.34-.32,.65-.68,.94-1.08Z"/></g><path class="d" d="M334.22,84.37c-.26-.33-.38-.91-.38-1.76v-4.78c0-3.47-1.1-6.08-3.29-7.85-2.19-1.76-5.29-2.65-9.29-2.65-2.14,0-4.15,.26-6.02,.79-1.87,.53-3.66,1.34-5.35,2.42l2.64,5.66c1.34-.9,2.63-1.58,3.86-2.04,1.23-.46,2.55-.7,3.96-.7,1.54,0,2.65,.28,3.34,.83,.69,.55,1.03,1.4,1.03,2.53v.77c-.64-.32-1.4-.56-2.28-.72-.88-.16-1.82-.24-2.81-.24-2.11,0-3.99,.36-5.64,1.08-1.65,.72-2.94,1.72-3.86,3-.93,1.27-1.39,2.74-1.39,4.41,0,1.51,.38,2.87,1.15,4.08s1.82,2.16,3.17,2.85c1.34,.69,2.85,1.04,4.51,1.04s3.23-.38,4.7-1.13c1.47-.75,2.77-1.85,3.89-3.29l.19,.91c.26,1.15,.81,2.02,1.66,2.62,.85,.59,2.09,.89,3.72,.89,.51,0,1.1-.04,1.75-.12,.66-.08,1.35-.2,2.09-.36v-7.68c-.64-.06-1.09-.26-1.34-.59Zm-12.83,5.78c-.94,.16-1.9,.25-2.85,.25s-1.91-.08-2.85-.25c.35-2.01,.7-4.02,1.05-6.03-.75-.55-1.24-1.43-1.24-2.43,0-1.67,1.36-3.03,3.03-3.03s3.03,1.36,3.03,3.03c0,1-.49,1.88-1.24,2.43,.35,2.01,.7,4.02,1.05,6.03Z"/></g></g></g></svg>