<svg xmlns="http://www.w3.org/2000/svg" viewBox="0 0 278.02 77.51"><defs><style>.cls-1{fill:#4f4f4f;}.cls-2{fill:#ff3b3d;}</style></defs><g id="Capa_2" data-name="Capa 2"><g id="Capa_1-2" data-name="Capa 1"><path class="cls-1" d="M8.17.72H16l8.14,25.56H17l-1.32-5H8.48l-1.32,5H0Zm6.3,15.88-2.37-9-2.38,9Z"/><path class="cls-1" d="M38.56,26.64a7.58,7.58,0,0,1-3.57-.8,5.51,5.51,0,0,1-2.34-2.32V34H25.81V7.6h5.94v2.86a7.06,7.06,0,0,1,2.5-2.34,7.53,7.53,0,0,1,3.62-.81A8.28,8.28,0,0,1,44.14,10,9.4,9.4,0,0,1,46,13.08a10.9,10.9,0,0,1,.65,3.82,11.61,11.61,0,0,1-1,5,8.71,8.71,0,0,1-2.87,3.47A7,7,0,0,1,38.56,26.64Zm-2.38-5.76a3.08,3.08,0,0,0,1.39-.31,3.38,3.38,0,0,0,1.09-.87,3.62,3.62,0,0,0,.72-1.27,4.73,4.73,0,0,0,.26-1.56,4.29,4.29,0,0,0-.27-1.56,3.42,3.42,0,0,0-.78-1.19,3.72,3.72,0,0,0-1.19-.78,4.06,4.06,0,0,0-1.51-.27,3.57,3.57,0,0,0-.92.12,3.42,3.42,0,0,0-.84.33,4.35,4.35,0,0,0-.78.56,4.61,4.61,0,0,0-.7.8v3.23a5.2,5.2,0,0,0,.88,1.42,4.48,4.48,0,0,0,1.25,1A3,3,0,0,0,36.18,20.88Z"/><path class="cls-1" d="M62,13.18a14,14,0,0,0-3.61.43,4.41,4.41,0,0,0-2.41,1.44V26.28H49.1V7.6h6.27v3.34A7.85,7.85,0,0,1,57.89,8a5.63,5.63,0,0,1,3.2-1h.56A1.55,1.55,0,0,1,62,7Z"/><path class="cls-1" d="M73.4,26.64A12.07,12.07,0,0,1,69,25.88a9.32,9.32,0,0,1-3.25-2.08,8.77,8.77,0,0,1-2-3A9.47,9.47,0,0,1,63,17.21a10.38,10.38,0,0,1,1.19-4.93,9.1,9.1,0,0,1,3.49-3.61A11,11,0,0,1,73.4,7.31a11.09,11.09,0,0,1,5.69,1.35,9,9,0,0,1,3.49,3.54A10,10,0,0,1,83.77,17c0,.35,0,.71,0,1.08s-.08.69-.13,1H70.31a2.71,2.71,0,0,0,.55,1.56,2.83,2.83,0,0,0,1.23.87,4.4,4.4,0,0,0,1.53.27,4.51,4.51,0,0,0,2.1-.5A2.56,2.56,0,0,0,77,19.84l5.79,1.65a8.4,8.4,0,0,1-2.1,2.67A10.24,10.24,0,0,1,77.54,26,11.91,11.91,0,0,1,73.4,26.64Zm-3.24-11.7h6.27a3.39,3.39,0,0,0-.53-1.49,2.74,2.74,0,0,0-1.08-.94,3.25,3.25,0,0,0-1.53-.34,3.31,3.31,0,0,0-1.53.34,2.88,2.88,0,0,0-1.08.94A3.38,3.38,0,0,0,70.16,14.94Z"/><path class="cls-1" d="M105.05,26.28H98.21V15.88a2.67,2.67,0,0,0-.63-2,2,2,0,0,0-1.46-.62,2.74,2.74,0,0,0-1.23.33,4,4,0,0,0-1.18.9,4.78,4.78,0,0,0-.87,1.33V26.28H86V7.6h6.16v2.82a6,6,0,0,1,1.73-1.71A8,8,0,0,1,96.3,7.66a12.2,12.2,0,0,1,3-.35,6.11,6.11,0,0,1,3.09.67,4.49,4.49,0,0,1,1.73,1.73,7,7,0,0,1,.76,2.22,13.64,13.64,0,0,1,.18,2.1Z"/><path class="cls-1" d="M107.35,16.94A11.1,11.1,0,0,1,108.41,12a8.61,8.61,0,0,1,2.94-3.44,7.53,7.53,0,0,1,4.28-1.25,7,7,0,0,1,3.38.84,5.59,5.59,0,0,1,2.34,2.33V0h6.84V18.72a2.32,2.32,0,0,0,.29,1.35,1.39,1.39,0,0,0,1,.45v5.76a15.11,15.11,0,0,1-2.88.36,5.07,5.07,0,0,1-2.74-.65,3,3,0,0,1-1.29-2l-.15-.68a5.89,5.89,0,0,1-2.62,2.52,8.06,8.06,0,0,1-3.53.79,8.94,8.94,0,0,1-3.58-.71,8.41,8.41,0,0,1-2.85-2A8.92,8.92,0,0,1,108,20.85,11.46,11.46,0,0,1,107.35,16.94Zm14,2.07V15.76a4.81,4.81,0,0,0-.88-1.4,4.46,4.46,0,0,0-1.24-.95,3.11,3.11,0,0,0-1.41-.34,3,3,0,0,0-1.38.31,3.39,3.39,0,0,0-1.1.86,4.12,4.12,0,0,0-.72,1.28,4.68,4.68,0,0,0-.25,1.56,4.24,4.24,0,0,0,.27,1.55,3.43,3.43,0,0,0,.77,1.2,3.54,3.54,0,0,0,1.19.77,3.87,3.87,0,0,0,1.51.28,3.51,3.51,0,0,0,.94-.12,3.68,3.68,0,0,0,.82-.35,3.75,3.75,0,0,0,.78-.58A7,7,0,0,0,121.39,19Z"/><path class="cls-1" d="M141.62,26.64a12.07,12.07,0,0,1-4.43-.76,9.32,9.32,0,0,1-3.25-2.08,8.77,8.77,0,0,1-2-3,9.47,9.47,0,0,1-.69-3.58,10.38,10.38,0,0,1,1.19-4.93,9.1,9.1,0,0,1,3.49-3.61,12.62,12.62,0,0,1,11.38,0,9,9,0,0,1,3.49,3.54A10,10,0,0,1,152,17c0,.35,0,.71-.05,1.08s-.08.69-.13,1H138.53a2.71,2.71,0,0,0,.55,1.56,2.83,2.83,0,0,0,1.23.87,4.4,4.4,0,0,0,1.53.27,4.51,4.51,0,0,0,2.1-.5,2.56,2.56,0,0,0,1.32-1.4l5.79,1.65a8.4,8.4,0,0,1-2.1,2.67A10.24,10.24,0,0,1,145.76,26,11.91,11.91,0,0,1,141.62,26.64Zm-3.24-11.7h6.27a3.39,3.39,0,0,0-.53-1.49,2.74,2.74,0,0,0-1.08-.94,3.25,3.25,0,0,0-1.53-.34,3.31,3.31,0,0,0-1.53.34,2.88,2.88,0,0,0-1.08.94A3.38,3.38,0,0,0,138.38,14.94Z"/><path class="cls-1" d="M.86,56.45a12.45,12.45,0,0,1,.89-4.59,12.88,12.88,0,0,1,2.57-4.09,12.59,12.59,0,0,1,4.12-2.93,13.22,13.22,0,0,1,5.49-1.1,12.91,12.91,0,0,1,6.41,1.53,10,10,0,0,1,4.07,4L19,53.14a4.27,4.27,0,0,0-1.35-2,5.31,5.31,0,0,0-1.9-.95,7.87,7.87,0,0,0-2-.27,5.47,5.47,0,0,0-2.61.59,5.36,5.36,0,0,0-1.8,1.57,7,7,0,0,0-1.05,2.16A8.81,8.81,0,0,0,8,56.66a8.11,8.11,0,0,0,.4,2.56A6.89,6.89,0,0,0,9.54,61.4a5.37,5.37,0,0,0,1.85,1.49,5.56,5.56,0,0,0,2.47.54,6.9,6.9,0,0,0,2-.3,5.57,5.57,0,0,0,1.84-1,4.32,4.32,0,0,0,1.26-1.84l5.72,3.42a7.39,7.39,0,0,1-2.52,3.2,13.14,13.14,0,0,1-4,2,14.56,14.56,0,0,1-4.42.7,12,12,0,0,1-5.21-1.13,13.13,13.13,0,0,1-4.06-3A13.81,13.81,0,0,1,1.8,61.25,13,13,0,0,1,.86,56.45Z"/><path class="cls-1" d="M26.68,49V43.2h6.84V49Zm0,20.52V50.54h6.84V69.48Z"/><path class="cls-1" d="M49,69.84A7.48,7.48,0,0,1,45.36,69a6.11,6.11,0,0,1-2.45-2.46v3H37V43.2h6.84V53.68a5.55,5.55,0,0,1,2.34-2.36,7.47,7.47,0,0,1,3.57-.81,7.19,7.19,0,0,1,3.2.72,8,8,0,0,1,2.57,2,9.32,9.32,0,0,1,1.71,3.1,11.81,11.81,0,0,1,.62,3.87,10.74,10.74,0,0,1-.67,3.81,9.61,9.61,0,0,1-1.84,3.06,7.9,7.9,0,0,1-2.77,2A8.63,8.63,0,0,1,49,69.84Zm-2-5.76a3.87,3.87,0,0,0,1.51-.28,3.42,3.42,0,0,0,2-2,4.24,4.24,0,0,0,.27-1.55,4.5,4.5,0,0,0-.45-2,3.75,3.75,0,0,0-1.23-1.46,3.09,3.09,0,0,0-1.78-.53,3,3,0,0,0-1.4.34,4.5,4.5,0,0,0-1.25,1,4.81,4.81,0,0,0-.88,1.4v3.25a7,7,0,0,0,.7.82,4,4,0,0,0,.78.58,3.47,3.47,0,0,0,.84.35A3.57,3.57,0,0,0,47.05,64.08Z"/><path class="cls-1" d="M69.59,69.84a12,12,0,0,1-4.43-.76A9.36,9.36,0,0,1,61.9,67a8.91,8.91,0,0,1-2-3,9.65,9.65,0,0,1-.68-3.58,10.38,10.38,0,0,1,1.19-4.93,9,9,0,0,1,3.49-3.61,11,11,0,0,1,5.69-1.36,11.12,11.12,0,0,1,5.69,1.35,9.06,9.06,0,0,1,3.49,3.54A10,10,0,0,1,80,60.19a10,10,0,0,1-.06,1.08c0,.37-.08.69-.12,1H66.49a2.78,2.78,0,0,0,.56,1.56,2.75,2.75,0,0,0,1.22.87,4.4,4.4,0,0,0,1.53.27,4.52,4.52,0,0,0,2.11-.5A2.51,2.51,0,0,0,73.22,63L79,64.69a8.43,8.43,0,0,1-2.11,2.67,10.3,10.3,0,0,1-3.18,1.81A12,12,0,0,1,69.59,69.84Zm-3.24-11.7h6.26a3.38,3.38,0,0,0-.52-1.49A2.88,2.88,0,0,0,71,55.71a3.61,3.61,0,0,0-3.06,0,2.81,2.81,0,0,0-1.08.94A3.26,3.26,0,0,0,66.35,58.14Z"/><path class="cls-1" d="M95,56.38a13.88,13.88,0,0,0-3.6.43A4.37,4.37,0,0,0,89,58.25V69.48H82.19V50.8h6.26v3.34A7.85,7.85,0,0,1,91,51.21a5.66,5.66,0,0,1,3.2-1h.56a1.55,1.55,0,0,1,.31,0Z"/><path class="cls-1" d="M104.76,69.84A15.14,15.14,0,0,1,99.88,69a11,11,0,0,1-4-2.36l2.34-4.21a19.1,19.1,0,0,0,3.4,1.8,8.2,8.2,0,0,0,3,.65,2.62,2.62,0,0,0,1.12-.18.59.59,0,0,0,.36-.58.69.69,0,0,0-.25-.53,3,3,0,0,0-.81-.42,14.42,14.42,0,0,0-1.43-.46c-1.48-.52-2.73-1-3.72-1.45a5.58,5.58,0,0,1-2.23-1.65,4.11,4.11,0,0,1-.74-2.59,6,6,0,0,1,1-3.38,6.55,6.55,0,0,1,2.79-2.31,10.2,10.2,0,0,1,4.37-.85,13.17,13.17,0,0,1,3.84.59,10.57,10.57,0,0,1,3.72,2.14l-2.59,4.18a18.35,18.35,0,0,0-3-1.58,6.23,6.23,0,0,0-2.21-.47,2.71,2.71,0,0,0-.81.1,1.11,1.11,0,0,0-.53.32.84.84,0,0,0-.18.56.74.74,0,0,0,.26.58,2.37,2.37,0,0,0,.79.42c.36.13.81.28,1.37.44a28.15,28.15,0,0,1,4,1.42A5.73,5.73,0,0,1,111.87,61a4.47,4.47,0,0,1,.74,2.67,5.49,5.49,0,0,1-2.11,4.57A9.07,9.07,0,0,1,104.76,69.84Z"/><path class="cls-1" d="M124.52,69.84a12.07,12.07,0,0,1-4.43-.76A9.32,9.32,0,0,1,116.84,67a8.77,8.77,0,0,1-2-3,9.47,9.47,0,0,1-.69-3.58,10.38,10.38,0,0,1,1.19-4.93,9.1,9.1,0,0,1,3.49-3.61,12.62,12.62,0,0,1,11.38,0,9,9,0,0,1,3.49,3.54,10,10,0,0,1,1.19,4.79c0,.35,0,.71,0,1.08s-.08.69-.13,1H121.43A2.71,2.71,0,0,0,122,63.8a2.83,2.83,0,0,0,1.23.87,4.4,4.4,0,0,0,1.53.27,4.51,4.51,0,0,0,2.1-.5,2.56,2.56,0,0,0,1.32-1.4L134,64.69a8.4,8.4,0,0,1-2.1,2.67,10.24,10.24,0,0,1-3.19,1.81A11.91,11.91,0,0,1,124.52,69.84Zm-3.24-11.7h6.27a3.39,3.39,0,0,0-.53-1.49,2.74,2.74,0,0,0-1.08-.94,3.25,3.25,0,0,0-1.53-.34,3.31,3.31,0,0,0-1.53.34,2.88,2.88,0,0,0-1.08.94A3.38,3.38,0,0,0,121.28,58.14Z"/><path class="cls-1" d="M144.39,69.84a7.79,7.79,0,0,1-3.36-.72,7.59,7.59,0,0,1-2.61-2,9.7,9.7,0,0,1-1.68-3,11.65,11.65,0,0,1-.59-3.75,11.41,11.41,0,0,1,.65-3.91,9.57,9.57,0,0,1,1.82-3.12,8,8,0,0,1,2.79-2.06,8.64,8.64,0,0,1,3.56-.72,8.05,8.05,0,0,1,3.58.77A5.76,5.76,0,0,1,151,53.6V50.8H157v17a9,9,0,0,1-1.44,5.1,9.44,9.44,0,0,1-4,3.37,14.29,14.29,0,0,1-6.05,1.2,13.47,13.47,0,0,1-5.24-.94,11.81,11.81,0,0,1-4-2.7l3.6-3.74a9.5,9.5,0,0,0,2.5,1.64,7.5,7.5,0,0,0,3.12.66,6.46,6.46,0,0,0,2.32-.41,3.66,3.66,0,0,0,1.71-1.31,4.46,4.46,0,0,0,.65-2.6V66.89a5.07,5.07,0,0,1-2.36,2.21A7.83,7.83,0,0,1,144.39,69.84Zm2.45-5.4a3.32,3.32,0,0,0,1-.13,3.13,3.13,0,0,0,.84-.36,3.86,3.86,0,0,0,.78-.61,7.37,7.37,0,0,0,.7-.85v-3.4a4.69,4.69,0,0,0-.9-1.5,4.58,4.58,0,0,0-1.26-1,3.11,3.11,0,0,0-1.41-.34,3,3,0,0,0-1.35.32,3.32,3.32,0,0,0-1.09.93,4,4,0,0,0-.72,1.35,5.11,5.11,0,0,0-.26,1.63,4.5,4.5,0,0,0,.27,1.59,3.58,3.58,0,0,0,.78,1.25,3.4,3.4,0,0,0,1.19.81A3.74,3.74,0,0,0,146.84,64.44Z"/><path class="cls-1" d="M160.23,63.09V50.8h6.84V61.5a2.94,2.94,0,0,0,.56,1.89,1.86,1.86,0,0,0,1.53.69,4,4,0,0,0,1.08-.14,3.2,3.2,0,0,0,1.1-.54,5.37,5.37,0,0,0,1.1-1.16V50.8h6.84V62a2.2,2.2,0,0,0,.29,1.33,1.36,1.36,0,0,0,1,.44v5.76q-.9.18-1.62.27a10.32,10.32,0,0,1-1.26.09A5,5,0,0,1,175,69.2a3,3,0,0,1-1.3-2l-.14-.68a7.68,7.68,0,0,1-3.19,2.51,11.06,11.06,0,0,1-4.19.76,5.52,5.52,0,0,1-4.38-1.74A7.36,7.36,0,0,1,160.23,63.09Z"/><path class="cls-1" d="M196.23,56.38a13.88,13.88,0,0,0-3.6.43,4.41,4.41,0,0,0-2.41,1.44V69.48h-6.84V50.8h6.27v3.34a7.85,7.85,0,0,1,2.52-2.93,5.61,5.61,0,0,1,3.2-1h.56a1.45,1.45,0,0,1,.3,0Z"/><path class="cls-1" d="M198.36,49V43.2h6.84V49Zm0,20.52V50.54h6.84V69.48Z"/><path class="cls-1" d="M207.64,60.14a11.1,11.1,0,0,1,1.07-4.94,8.41,8.41,0,0,1,2.93-3.43,7.5,7.5,0,0,1,4.28-1.26,7,7,0,0,1,3.39.84,5.71,5.71,0,0,1,2.34,2.33V43.2h6.84V61.92a2.25,2.25,0,0,0,.29,1.35,1.37,1.37,0,0,0,1,.45v5.76a14.93,14.93,0,0,1-2.88.36,5,5,0,0,1-2.73-.65,3,3,0,0,1-1.3-2l-.14-.68a6,6,0,0,1-2.63,2.52,8,8,0,0,1-3.53.79,9,9,0,0,1-3.58-.71,8.37,8.37,0,0,1-2.84-2,8.79,8.79,0,0,1-1.86-3.08A11.46,11.46,0,0,1,207.64,60.14Zm14,2.07V59a4.61,4.61,0,0,0-.88-1.4,4.32,4.32,0,0,0-1.24-1,3.16,3.16,0,0,0-2.79,0,3.39,3.39,0,0,0-1.1.86,4.12,4.12,0,0,0-.72,1.28,4.72,4.72,0,0,0-.25,1.56,4.24,4.24,0,0,0,.27,1.55,3.58,3.58,0,0,0,.77,1.2,3.64,3.64,0,0,0,1.19.77,3.9,3.9,0,0,0,1.51.28,3.51,3.51,0,0,0,.94-.12,3.76,3.76,0,0,0,.83-.35A4,4,0,0,0,221,63,6.17,6.17,0,0,0,221.68,62.21Z"/><path class="cls-1" d="M255.88,60.14A11.1,11.1,0,0,1,257,55.2a8.41,8.41,0,0,1,2.93-3.43,7.48,7.48,0,0,1,4.28-1.26,7,7,0,0,1,3.39.84,5.71,5.71,0,0,1,2.34,2.33V43.2h6.84V61.92a2.25,2.25,0,0,0,.29,1.35,1.37,1.37,0,0,0,1,.45v5.76a14.93,14.93,0,0,1-2.88.36,5,5,0,0,1-2.73-.65,3,3,0,0,1-1.3-2l-.14-.68a6,6,0,0,1-2.63,2.52,8.06,8.06,0,0,1-3.53.79,9,9,0,0,1-3.58-.71,8.37,8.37,0,0,1-2.84-2,8.79,8.79,0,0,1-1.86-3.08A11.46,11.46,0,0,1,255.88,60.14Zm14,2.07V59a4.61,4.61,0,0,0-.88-1.4,4.46,4.46,0,0,0-1.24-1,3.16,3.16,0,0,0-2.79,0,3.39,3.39,0,0,0-1.1.86,4.12,4.12,0,0,0-.72,1.28,4.72,4.72,0,0,0-.25,1.56,4.24,4.24,0,0,0,.27,1.55A3.58,3.58,0,0,0,264,63a3.54,3.54,0,0,0,1.19.77,3.9,3.9,0,0,0,1.51.28,3.51,3.51,0,0,0,.94-.12,3.76,3.76,0,0,0,.83-.35,4,4,0,0,0,.77-.58A6.17,6.17,0,0,0,269.92,62.21Z"/><path class="cls-2" d="M252.35,48.24h-1.57V45.11a7.82,7.82,0,1,0-15.63,0h3.12a4.7,4.7,0,0,1,9.39,0v3.13H233.58a3.14,3.14,0,0,0-3.13,3.13V67a3.13,3.13,0,0,0,3.13,3.12h18.77A3.13,3.13,0,0,0,255.48,67V51.37A3.14,3.14,0,0,0,252.35,48.24ZM243,62.32a3.13,3.13,0,1,1,3.12-3.13A3.14,3.14,0,0,1,243,62.32Z"/></g></g></svg>