<svg xmlns="http://www.w3.org/2000/svg" viewBox="0 0 93.85 29.32"><defs><style>.cls-1{font-size:12px;fill:#4f4f4f;font-family:Raleway-Black, Raleway;font-weight:800;}.cls-2{fill:#ff3b3d;}.cls-3{fill:#fff;}</style></defs><g id="Capa_2" data-name="Capa 2"><g id="Capa_1-2" data-name="Capa 1"><text class="cls-1" transform="translate(0.02 10.26)">Aprende <tspan x="0" y="14.4">Ciberseguridad</tspan></text><path class="cls-2" d="M77.18,22.77a1.84,1.84,0,0,1,.34-1.1,2.37,2.37,0,0,1,1-.75,3.48,3.48,0,0,1,1.41-.27,3.88,3.88,0,0,1,.7.06,2.12,2.12,0,0,1,.57.18V20.7a.75.75,0,0,0-.26-.64,1.39,1.39,0,0,0-.83-.2,2.94,2.94,0,0,0-1,.17,5.37,5.37,0,0,0-1,.51l-.66-1.41a4.75,4.75,0,0,1,1.34-.61,5.62,5.62,0,0,1,1.51-.2,3.62,3.62,0,0,1,2.32.66,2.37,2.37,0,0,1,.82,2v1.19a.69.69,0,0,0,.1.44.47.47,0,0,0,.33.15v1.92l-.52.09-.44,0a1.64,1.64,0,0,1-.93-.23,1,1,0,0,1-.41-.65l0-.23a2.78,2.78,0,0,1-1,.82,2.54,2.54,0,0,1-1.18.29,2.43,2.43,0,0,1-1.12-.26,2.15,2.15,0,0,1-.8-.72A1.86,1.86,0,0,1,77.18,22.77Z"/><path class="cls-3" d="M80.61,22a.8.8,0,1,0-1.2.68l-.32,1.12h1.52l-.38-1.13A.79.79,0,0,0,80.61,22Z"/></g></g></svg>