<svg xmlns="http://www.w3.org/2000/svg" viewBox="0 0 282.71 86.47"><defs><style>.cls-1{font-size:36px;fill:#4f4f4f;font-family:Raleway-Black, Raleway;font-weight:800;}.cls-2{fill:#ff3b3d;}</style></defs><g id="Capa_2" data-name="Capa 2"><g id="Capa_1-2" data-name="Capa 1"><text class="cls-1" transform="translate(0.07 30.78)">Aprende <tspan x="0" y="43.2" xml:space="preserve">Cibersegurid   d</tspan></text><path class="cls-2" d="M252.35,52.74h-1.57V49.61a7.82,7.82,0,1,0-15.63,0h3.12a4.7,4.7,0,0,1,9.39,0v3.13H233.58a3.14,3.14,0,0,0-3.13,3.13V71.51a3.13,3.13,0,0,0,3.13,3.12h18.77a3.13,3.13,0,0,0,3.13-3.12V55.87A3.14,3.14,0,0,0,252.35,52.74ZM243,66.82a3.13,3.13,0,1,1,3.12-3.13A3.14,3.14,0,0,1,243,66.82Z"/></g></g></svg>